<?xml version="1.0" encoding="UTF-8" standalone="no"?>
<!-- Created with Inkscape (http://www.inkscape.org/) -->

<svg
   width="193.80305mm"
   height="189.83801mm"
   viewBox="0 0 193.80305 189.83802"
   version="1.1"
   id="svg5"
   inkscape:version="1.2.1 (9c6d41e410, 2022-07-14)"
   sodipodi:docname="logo_white.svg"
   xmlns:inkscape="http://www.inkscape.org/namespaces/inkscape"
   xmlns:sodipodi="http://sodipodi.sourceforge.net/DTD/sodipodi-0.dtd"
   xmlns="http://www.w3.org/2000/svg"
   xmlns:svg="http://www.w3.org/2000/svg">
  <sodipodi:namedview
     id="namedview7"
     pagecolor="#ffffff"
     bordercolor="#000000"
     borderopacity="0.25"
     inkscape:showpageshadow="2"
     inkscape:pageopacity="0.0"
     inkscape:pagecheckerboard="0"
     inkscape:deskcolor="#d1d1d1"
     inkscape:document-units="mm"
     showgrid="false"
     inkscape:zoom="0.73851712"
     inkscape:cx="419.76008"
     inkscape:cy="452.93466"
     inkscape:window-width="1920"
     inkscape:window-height="996"
     inkscape:window-x="0"
     inkscape:window-y="0"
     inkscape:window-maximized="1"
     inkscape:current-layer="layer1" />
  <defs
     id="defs2" />
  <g
     inkscape:label="Layer 1"
     inkscape:groupmode="layer"
     id="layer1"
     transform="translate(-2.7162079,-19.517498)">
    <path
       style="fill:#ffffff;stroke-width:0.264583"
       d="m 48.659125,97.940203 v 85.191507 l 21.890932,0.19315 -5.234961,-38.77313 33.082316,52.25791 H 116.63156 L 64.690343,131.77433 107.83672,98.459231 H 84.667636 L 63.59642,126.3132 66.172531,98.985045 Z"
       id="path182" />
    <path
       style="fill:#ffffff;stroke-width:0.264583"
       d="m 82.400964,135.38261 40.299596,59.10957 3.83253,-45.64552 18.04019,44.01053 20.73217,-90.59562 -31.47249,-1.30795 9.08974,61.87112 -18.02242,-23.90481 -7.79834,33.48449 -5.02985,-64.22033 z"
       id="path184" />
    <path
       style="fill:#ffffff;stroke-width:0.264583"
       d="m 136.21438,102.72953 -5.17238,-6.082727 13.01249,-3.830751 2.49004,-8.183774 -6.09598,4.66471 -10.04704,1.491414 -0.33948,-5.638006 -8.37678,3.713086 -1.16648,-3.560205 9.097,-4.591436 -0.0541,-12.247721 11.70403,-5.976884 18.34963,2.080326 2.90114,16.591486 -5.72932,23.471312 11.85182,-16.00893 0.64448,-26.052851 -10.34351,-10.889649 4.55607,-4.295265 5.37394,8.504362 -2.14435,-15.364351 4.87965,0.11739 -0.64909,13.868204 3.56006,-13.945682 3.53295,3.473784 -4.90823,10.381218 7.46558,-8.533379 2.89501,6.483863 -9.5374,3.116093 8.40046,0.716526 -1.91149,3.414803 -6.3565,-1.908128 -1.55935,5.004904 2.42496,28.31961 -10.34171,14.408418 z"
       id="path294" />
    <path
       style="fill:#ffffff;stroke-width:0.264583"
       d="m 65.452156,100.13544 10.93756,-5.072679 -13.022874,-1.920338 -4.892987,-8.916789 6.676409,5.215806 12.282074,-0.617033 -0.831172,-5.270997 7.836172,0.787474 -0.871911,-4.310165 -7.147525,0.809238 -4.154247,-14.307121 -13.823386,-4.857673 -15.97266,4.011369 -6.238026,13.893109 2.793265,14.648373 -13.308471,-13.523333 3.117044,-29.763968 11.19878,0.893492 0.0088,-4.858877 -10.208157,1.456296 8.86692,-11.895082 -3.857514,-1.71102 -5.661556,11.365309 2.525683,-13.274426 -5.697307,0.673028 1.509715,11.767328 -4.727413,-11.409492 -2.680871,4.295772 5.496813,7.989446 -6.172951,-3.351588 -0.755886,3.782927 5.896229,1.102572 0.948749,3.370294 -4.618583,32.650758 27.882738,98.32601 z"
       id="path296" />
  </g>
</svg>
