<?xml version="1.0" encoding="UTF-8" standalone="no"?>
<!-- Created with Inkscape (http://www.inkscape.org/) -->

<svg
   width="4.3287849mm"
   height="4.1904278mm"
   viewBox="0 0 4.3287848 4.1904278"
   version="1.1"
   id="svg5"
   inkscape:version="1.2.1 (9c6d41e410, 2022-07-14)"
   sodipodi:docname="favicon.svg"
   xmlns:inkscape="http://www.inkscape.org/namespaces/inkscape"
   xmlns:sodipodi="http://sodipodi.sourceforge.net/DTD/sodipodi-0.dtd"
   xmlns="http://www.w3.org/2000/svg"
   xmlns:svg="http://www.w3.org/2000/svg">
  <sodipodi:namedview
     id="namedview7"
     pagecolor="#ffffff"
     bordercolor="#000000"
     borderopacity="0.25"
     inkscape:showpageshadow="2"
     inkscape:pageopacity="0.0"
     inkscape:pagecheckerboard="0"
     inkscape:deskcolor="#d1d1d1"
     inkscape:document-units="mm"
     showgrid="false"
     inkscape:zoom="5.9081369"
     inkscape:cx="62.033092"
     inkscape:cy="-21.918923"
     inkscape:window-width="1920"
     inkscape:window-height="996"
     inkscape:window-x="0"
     inkscape:window-y="0"
     inkscape:window-maximized="1"
     inkscape:current-layer="layer1" />
  <defs
     id="defs2" />
  <g
     inkscape:label="Layer 1"
     inkscape:groupmode="layer"
     id="layer1"
     transform="translate(-4.178505,-37.495391)">
    <ellipse
       style="display:none;fill:#b3b3b3;stroke-width:0.239495"
       id="path657"
       cx="98.91423"
       cy="123.61584"
       rx="91.763435"
       ry="80.08786" />
    <ellipse
       style="display:none;fill:#999999;stroke-width:0.205916"
       id="path657-3"
       cx="99.085884"
       cy="137.10719"
       rx="82.320221"
       ry="65.995781" />
    <path
       style="fill:#000000;stroke-width:0.00604949"
       d="m 5.1657204,39.22404 v 1.947844 l 0.5005209,0.0044 -0.1196937,-0.88652 0.7564039,1.194841 h 0.416911 L 5.5322629,39.997628 6.5187748,39.235902 H 5.9890299 l -0.4817787,0.636861 0.058901,-0.624838 z"
       id="path182" />
    <path
       style="fill:#000000;stroke-width:0.00604949"
       d="M 5.937204,40.080134 6.858626,41.431633 6.946254,40.38798 7.3587303,41.394251 7.8327569,39.322845 7.1131604,39.292945 7.320991,40.707587 6.908921,40.16102 6.7306172,40.926619 6.6156133,39.458266 Z"
       id="path184" />
    <path
       style="fill:#000000;stroke-width:0.00604949"
       d="m 7.1676101,39.333545 -0.1182629,-0.139077 0.2975214,-0.08759 0.056933,-0.187116 -0.1393803,0.106656 -0.2297187,0.0341 -0.00776,-0.128909 -0.1915293,0.0849 -0.026671,-0.0814 0.2079964,-0.10498 -0.00124,-0.280037 0.2676046,-0.136656 0.4195514,0.04756 0.066332,0.379353 -0.1309968,0.536655 0.2709836,-0.366032 0.014736,-0.595681 -0.2364972,-0.248984 0.1041715,-0.09821 0.1228713,0.194448 -0.049029,-0.351297 0.1115699,0.0027 -0.014842,0.317087 0.081398,-0.318856 0.080778,0.07942 -0.1122234,0.237361 0.1706954,-0.195109 0.066192,0.148248 -0.218066,0.07125 0.1920707,0.01639 -0.043705,0.07808 -0.1453369,-0.04363 -0.035653,0.114433 0.055445,0.647509 -0.236456,0.329437 z"
       id="path294" />
    <path
       style="fill:#000000;stroke-width:0.00604949"
       d="M 5.5496812,39.274233 5.7997609,39.15825 5.5020021,39.11434 5.3901273,38.910464 l 0.1526514,0.119257 0.280821,-0.01411 -0.019004,-0.120519 0.1791687,0.01799 -0.019936,-0.09855 -0.1634232,0.0185 -0.094984,-0.327121 -0.3160622,-0.111069 -0.3652036,0.09172 -0.1426282,0.317655 0.063866,0.334926 -0.3042889,-0.309201 0.071269,-0.680534 0.2560524,0.02043 2.039e-4,-0.111094 -0.2334024,0.0333 0.202736,-0.271974 -0.088199,-0.03912 -0.1294476,0.25986 0.057748,-0.303511 -0.130265,0.01538 0.034518,0.269052 -0.1080888,-0.260869 -0.061296,0.09822 0.1256807,0.182673 -0.1411402,-0.07663 -0.017283,0.08649 0.1348131,0.02521 0.021692,0.07706 -0.1056007,0.746538 0.6375194,2.248156 z"
       id="path296" />
    <path
       style="fill:#ff6600;stroke-width:0.00604949"
       d="m 4.8014417,39.318788 c 0,0.05387 0.44763,1.701096 0.44763,1.701096 l -0.1393435,-1.70334 z"
       id="path1256" />
    <path
       style="fill:#ff6600;stroke-width:0.00604949"
       d="M 6.0781951,40.11176 6.6214829,40.878815 6.2992074,39.96163 Z"
       id="path1258" />
    <path
       style="fill:#ff6600;stroke-width:0.00604949"
       d="M 6.1986343,41.143036 6.354552,41.388303 H 6.5066695 Z"
       id="path1260" />
    <path
       style="fill:#ff6600;stroke-width:0.00604949"
       d="m 7.1997239,39.386273 0.1167789,0.855169 0.075729,-0.866815 z"
       id="path1262" />
  </g>
</svg>
